<?xml version="1.0" encoding="UTF-8"?>
<svg width="197px" height="67px" viewBox="0 0 197 67" version="1.1" xmlns="http://www.w3.org/2000/svg" xmlns:xlink="http://www.w3.org/1999/xlink">
    <!-- Generator: Sketch 57.1 (83088) - https://sketch.com -->
    <title>logo-kkh-wilhelmstift</title>
    <desc>Created with Sketch.</desc>
    <g id="Symbols" stroke="none" stroke-width="1" fill="none" fill-rule="evenodd">
        <g id="Header-Desktop" transform="translate(-235.000000, -13.000000)">
            <g id="Menu-BAR">
                <g id="logo-kkh-wilhelmstift" transform="translate(235.000000, 13.000000)">
                    <polyline id="Fill-1" fill="#D8232A" points="22.2284757 48.2563053 0 24.4205303 23.8369414 2.1908882 33.6121519 12.6741036 20.9427139 12.679158 20.9477683 25.348596 33.6172063 25.3435415 33.6218719 37.6307891 22.2284757 48.2563053"></polyline>
                    <polyline id="Fill-2" fill="#F9C623" points="33.6121519 12.6741036 33.6074863 0.00505440047 46.2769243 0 46.2815899 12.669438 33.6121519 12.6741036"></polyline>
                    <polyline id="Fill-3" fill="#D8232A" points="46.2866443 25.3388759 46.2815899 12.669438 58.9510279 12.6643836 58.9560823 25.3342103 46.2866443 25.3388759"></polyline>
                    <polyline id="Fill-4" fill="#1A1919" points="22.3416165 66.2876845 23.386711 66.2876845 24.3073895 61.9335129 27.852857 66.461867 28.7735355 65.9766445 25.5262776 61.9210713 29.8932796 58.1143302 29.1965499 57.5046917 24.3447143 61.8713049 24.3198311 61.8464217 25.2027959 57.6788741 24.1580902 57.6788741 22.3416165 66.2876845"></polyline>
                    <path d="M30.6265564,64.7573676 C30.6265564,63.8495195 31.6965341,63.2523227 33.5623855,63.0159322 C33.4130863,63.6131291 33.2637871,64.2721452 33.1766959,64.807134 C32.4927966,65.4789805 32.1444318,65.7153709 31.5721181,65.7153709 C30.9998045,65.7153709 30.6265564,65.3047981 30.6265564,64.7573676 Z M31.0868957,61.5104985 C31.6592093,61.0999257 32.6292654,60.6644696 33.1393711,60.6644696 C33.5623855,60.6644696 33.8734255,60.8137688 33.8734255,61.2989913 C33.8734255,61.5478233 33.7863343,62.057929 33.6992431,62.4062938 C32.2560174,62.555593 29.6312283,62.9412826 29.6312283,64.8320172 C29.6312283,65.8149037 30.26575,66.461867 31.2735197,66.461867 C32.0569518,66.461867 32.641707,66.0637357 33.1393711,65.5038637 C33.1393711,66.0139693 33.2140207,66.461867 33.8112175,66.461867 C34.1222576,66.461867 34.5079472,66.3250093 35.1175857,65.9019949 L34.8687536,65.4665389 C34.5950384,65.6407213 34.420856,65.7153709 34.2839984,65.7153709 C34.1595824,65.7153709 34.0351664,65.6158381 34.0351664,65.4416557 C34.0351664,65.118174 34.4457392,63.3020891 34.6323632,62.5307098 C34.8189872,61.7717721 34.8687536,61.4109657 34.8687536,61.1621337 C34.8687536,60.216572 34.234232,59.9179736 33.4130863,59.9179736 C32.542563,59.9179736 31.7836253,60.216572 30.6763228,60.8884184 L31.0868957,61.5104985 L31.0868957,61.5104985 Z" id="Fill-5" fill="#1A1919"></path>
                    <path d="M36.1389634,60.7640024 L37.4577731,60.7640024 L36.8108098,63.4140635 C36.6366274,64.1104043 36.4997698,64.7076012 36.4997698,65.2052652 C36.4997698,65.9268781 36.9725506,66.461867 37.7314883,66.461867 C38.2664771,66.461867 38.838402,66.2876845 39.5475733,65.8149037 L39.273858,65.24259 C38.7637524,65.5909549 38.402946,65.7153709 38.1296195,65.7153709 C37.7190467,65.7153709 37.4950979,65.4292141 37.4950979,65.0310828 C37.4950979,64.807134 37.5573059,64.4342748 37.6692803,63.9739355 L38.4527124,60.7640024 L39.8834965,60.7640024 L40.0452373,60.092156 L38.6144532,60.092156 L39.21165,57.6788741 L38.2163219,57.6788741 L37.6195139,60.092156 L36.3131458,60.092156 L36.1389634,60.7640024" id="Fill-6" fill="#1A1919"></path>
                    <path d="M40.0421269,66.2876845 L41.037455,66.2876845 L41.9456919,62.0703706 C42.9655144,61.1123673 43.6746856,60.6644696 44.1972329,60.6644696 C44.6451305,60.6644696 44.9561706,60.838652 44.9561706,61.2989913 C44.9561706,61.5851481 44.9064042,61.8713049 44.7819882,62.431177 L43.9608425,66.2876845 L44.9561706,66.2876845 L45.8021994,62.244553 C45.9017323,61.7468889 45.9514987,61.3985241 45.9514987,61.0501593 C45.9514987,60.2663384 45.2920938,59.9179736 44.5953641,59.9179736 C43.662244,59.9179736 42.666916,60.6147032 42.0576663,61.3114329 L42.0327831,61.2865497 L42.9903976,57.0567941 L41.9954583,57.0567941 L40.0421269,66.2876845" id="Fill-7" fill="#1A1919"></path>
                    <path d="M48.1400541,63.8868443 C48.1400541,62.5058266 48.9114333,60.6644696 50.4915167,60.6644696 C51.6237024,60.6644696 52.0218336,61.5851481 52.0218336,62.493385 C52.0218336,63.8744027 51.2504544,65.7153709 49.670371,65.7153709 C48.5381853,65.7153709 48.1400541,64.7946924 48.1400541,63.8868443 Z M47.1451148,63.8370779 C47.1451148,65.3421229 48.0280797,66.461867 49.6206046,66.461867 C51.7356768,66.461867 53.0167729,64.5458604 53.0167729,62.5431514 C53.0167729,61.0377177 52.133808,59.9179736 50.5412831,59.9179736 C48.4262109,59.9179736 47.1451148,61.8339801 47.1451148,63.8370779 L47.1451148,63.8370779 Z" id="Fill-8" fill="#1A1919"></path>
                    <polyline id="Fill-9" fill="#1A1919" points="54.0362066 66.2876845 55.0315347 66.2876845 56.9848661 57.0567941 55.989538 57.0567941 54.0362066 66.2876845"></polyline>
                    <path d="M57.4685333,66.2876845 L58.4638614,66.2876845 L59.7698407,60.092156 L58.7745126,60.092156 L57.4685333,66.2876845 Z M59.0482279,58.7239686 L60.043556,58.7239686 L60.2675048,57.6788741 L59.2725655,57.6788741 L59.0482279,58.7239686 L59.0482279,58.7239686 Z" id="Fill-10" fill="#1A1919"></path>
                    <path d="M60.3903656,66.1383853 C60.8631464,66.3747758 61.4105769,66.461867 62.0575402,66.461867 C63.3390251,66.461867 64.4836524,65.8273453 64.4836524,64.5831852 C64.4836524,62.8417498 62.1943978,62.9537242 62.1943978,61.7966553 C62.1943978,61.1496921 62.6422954,60.6644696 63.7495979,60.6644696 C64.0855211,60.6644696 64.5209772,60.7391192 64.9439916,60.8635352 L65.2052652,60.1668056 C64.7324844,60.0050648 64.2597036,59.9179736 63.7247147,59.9179736 C62.1197482,59.9179736 61.1990697,60.7266776 61.1990697,61.8464217 C61.1990697,63.6131291 63.4883243,63.4389467 63.4883243,64.6453932 C63.4883243,65.5163053 62.6671786,65.7900205 61.9704489,65.7900205 C61.5101097,65.7900205 61.0870953,65.7029293 60.6769112,65.5038637 L60.3903656,66.1383853" id="Fill-11" fill="#1A1919"></path>
                    <path d="M71.0508738,59.9926232 C70.7273922,59.9552984 70.4163521,59.9179736 70.0928705,59.9179736 C67.7293551,59.9179736 65.7138157,61.4482905 65.7138157,64.0979627 C65.7138157,65.3670061 66.5225198,66.461867 68.1274863,66.461867 C69.01084,66.461867 69.8315969,66.0139693 70.4163521,65.6033965 L70.0182209,65.0684076 C69.446296,65.4665389 68.8490992,65.7153709 68.1772527,65.7153709 C67.107275,65.7153709 66.7091438,64.7946924 66.7091438,63.8868443 C66.7091438,62.0206042 68.2270191,60.6644696 70.0679873,60.6644696 C70.4287937,60.6644696 70.5656513,60.6893528 70.7771586,60.7266776 L71.0508738,59.9926232" id="Fill-12" fill="#1A1919"></path>
                    <path d="M71.0003298,66.2876845 L71.9956579,66.2876845 L72.903506,62.0703706 C73.9237173,61.1123673 74.6328885,60.6644696 75.1554358,60.6644696 C75.6033334,60.6644696 75.9143734,60.838652 75.9143734,61.2989913 C75.9143734,61.5851481 75.864607,61.8713049 75.740191,62.431177 L74.9190453,66.2876845 L75.9143734,66.2876845 L76.7604023,62.244553 C76.8599351,61.7468889 76.9097015,61.3985241 76.9097015,61.0501593 C76.9097015,60.2663384 76.2502967,59.9179736 75.553567,59.9179736 C74.6204469,59.9179736 73.6255076,60.6147032 73.0158692,61.3114329 L72.990986,61.2865497 L73.9486005,57.0567941 L72.9536612,57.0567941 L71.0003298,66.2876845" id="Fill-13" fill="#1A1919"></path>
                    <path d="M79.3222058,62.5058266 C79.658129,61.6473561 80.3299754,60.58982 81.3128619,60.58982 C82.245982,60.58982 82.4699308,61.2865497 82.4699308,62.0330458 C82.4699308,62.1947866 82.4574892,62.3565274 82.4446588,62.5058266 L79.3222058,62.5058266 Z M83.3035181,63.1776731 C83.3284013,62.8790746 83.3653373,62.5804762 83.3653373,62.2818778 C83.3653373,61.0377177 82.8556205,59.9179736 81.437278,59.9179736 C79.471505,59.9179736 78.1029288,62.0330458 78.1029288,63.8121947 C78.1029288,65.3670061 78.9116329,66.461867 80.5165995,66.461867 C81.3999531,66.461867 82.2210988,66.0139693 82.8431789,65.5536301 L82.494814,64.9564332 C81.99715,65.3794477 81.3253035,65.7153709 80.6285739,65.7153709 C79.4963882,65.7153709 79.0982569,64.7946924 79.0982569,63.8868443 C79.0982569,63.6504539 79.1231401,63.4389467 79.1729065,63.1776731 L83.3035181,63.1776731 L83.3035181,63.1776731 Z" id="Fill-14" fill="#1A1919"></path>
                    <path d="M83.789907,66.1383853 C84.262299,66.3747758 84.8097295,66.461867 85.4566927,66.461867 C86.7381776,66.461867 87.8828049,65.8273453 87.8828049,64.5831852 C87.8828049,62.8417498 85.5935503,62.9537242 85.5935503,61.7966553 C85.5935503,61.1496921 86.041448,60.6644696 87.1487505,60.6644696 C87.4846737,60.6644696 87.9201298,60.7391192 88.3431442,60.8635352 L88.6044178,60.1668056 C88.131637,60.0050648 87.6588561,59.9179736 87.1238673,59.9179736 C85.5189007,59.9179736 84.5982222,60.7266776 84.5982222,61.8464217 C84.5982222,63.6131291 86.8874769,63.4389467 86.8874769,64.6453932 C86.8874769,65.5163053 86.0663312,65.7900205 85.3696015,65.7900205 C84.9092623,65.7900205 84.4862478,65.7029293 84.0760638,65.5038637 L83.789907,66.1383853" id="Fill-15" fill="#1A1919"></path>
                    <polyline id="Fill-16" fill="#1A1919" points="92.5204118 66.2876845 93.5655063 66.2876845 94.4861848 61.9335129 98.0316523 66.461867 98.9523308 65.9766445 95.7054617 61.9210713 100.072075 58.1143302 99.3753452 57.5046917 94.5235096 61.8713049 94.4986264 61.8464217 95.3815912 57.6788741 94.3368855 57.6788741 92.5204118 66.2876845"></polyline>
                    <path d="M100.121064,66.2876845 L101.116392,66.2876845 L102.422371,60.092156 L101.427432,60.092156 L100.121064,66.2876845 Z M101.701147,58.7239686 L102.696475,58.7239686 L102.920035,57.6788741 L101.925096,57.6788741 L101.701147,58.7239686 L101.701147,58.7239686 Z" id="Fill-17" fill="#1A1919"></path>
                    <path d="M103.341883,66.2876845 L104.336822,66.2876845 L105.245059,62.0703706 C106.265271,61.1123673 106.974442,60.6644696 107.496989,60.6644696 C107.944887,60.6644696 108.255927,60.838652 108.255927,61.2989913 C108.255927,61.5851481 108.20616,61.8713049 108.081744,62.431177 L107.260599,66.2876845 L108.255927,66.2876845 L109.101956,62.244553 C109.2011,61.7468889 109.250866,61.3985241 109.250866,61.0501593 C109.250866,60.2663384 108.59185,59.9179736 107.89512,59.9179736 C106.962,59.9179736 105.966672,60.6147032 105.357034,61.3114329 L105.332151,61.2865497 L105.643191,60.092156 L104.648251,60.092156 L103.341883,66.2876845" id="Fill-18" fill="#1A1919"></path>
                    <path d="M114.313431,66.2876845 L115.221668,66.2876845 L117.175,57.0567941 L116.179672,57.0567941 L115.557592,60.029948 C115.23411,59.9428568 114.898187,59.9179736 114.574705,59.9179736 C112.348047,59.9179736 110.444482,61.8961881 110.444482,64.210326 C110.444482,65.4043309 111.066562,66.461867 112.298281,66.461867 C113.194076,66.461867 113.965067,65.8522285 114.512497,65.2177068 L114.53738,65.24259 L114.313431,66.2876845 Z M114.649355,64.3343532 C113.816156,65.2177068 113.206129,65.6407213 112.621762,65.6407213 C111.8255,65.6407213 111.43981,65.0684076 111.43981,64.1477291 C111.43981,62.3192026 112.746178,60.58982 114.661796,60.58982 C114.92307,60.58982 115.15946,60.6271448 115.420734,60.6893528 L114.649355,64.3343532 L114.649355,64.3343532 Z" id="Fill-19" fill="#1A1919"></path>
                    <path d="M118.55524,62.5058266 C118.891163,61.6473561 119.562621,60.58982 120.545507,60.58982 C121.478627,60.58982 121.702576,61.2865497 121.702576,62.0330458 C121.702576,62.1947866 121.690134,62.3565274 121.677693,62.5058266 L118.55524,62.5058266 Z M122.536163,63.1776731 C122.561047,62.8790746 122.598371,62.5804762 122.598371,62.2818778 C122.598371,61.0377177 122.088266,59.9179736 120.669923,59.9179736 C118.704539,59.9179736 117.335963,62.0330458 117.335963,63.8121947 C117.335963,65.3670061 118.144667,66.461867 119.749245,66.461867 C120.632598,66.461867 121.453744,66.0139693 122.075824,65.5536301 L121.727459,64.9564332 C121.229795,65.3794477 120.557949,65.7153709 119.861219,65.7153709 C118.729422,65.7153709 118.331291,64.7946924 118.331291,63.8868443 C118.331291,63.6504539 118.356174,63.4389467 118.405941,63.1776731 L122.536163,63.1776731 L122.536163,63.1776731 Z" id="Fill-20" fill="#1A1919"></path>
                    <path d="M123.321151,66.2876845 L124.316479,66.2876845 L125.224327,62.0703706 C125.635288,61.3611993 126.194772,60.8137688 126.80441,60.8137688 C127.003476,60.8137688 127.202541,60.8510936 127.401607,60.90086 L127.650439,60.0050648 C127.451373,59.9552984 127.239866,59.9179736 127.040801,59.9179736 C126.331629,59.9179736 125.833965,60.3658712 125.286535,61.1994585 L125.261652,61.1745753 L125.572692,60.092156 L124.627519,60.092156 L123.321151,66.2876845" id="Fill-21" fill="#1A1919"></path>
                    <path d="M131.939292,66.461867 L132.747996,65.9268781 L130.297001,62.991049 L133.63135,60.5524952 L133.071478,59.9179736 L129.152374,62.9412826 L131.939292,66.461867 Z M127.435821,66.2876845 L128.43115,66.2876845 L130.384092,57.0567941 L129.388764,57.0567941 L127.435821,66.2876845 L127.435821,66.2876845 Z" id="Fill-22" fill="#1A1919"></path>
                    <path d="M133.632516,66.2876845 L134.627844,66.2876845 L135.535693,62.0703706 C135.946265,61.3611993 136.506137,60.8137688 137.115776,60.8137688 C137.314842,60.8137688 137.513907,60.8510936 137.712973,60.90086 L137.961805,60.0050648 C137.762739,59.9552984 137.551232,59.9179736 137.352166,59.9179736 C136.642995,59.9179736 136.145331,60.3658712 135.597901,61.1994585 L135.573017,61.1745753 L135.884057,60.092156 L134.938885,60.092156 L133.632516,66.2876845" id="Fill-23" fill="#1A1919"></path>
                    <path d="M138.642982,64.7573676 C138.642982,63.8495195 139.712571,63.2523227 141.578812,63.0159322 C141.429512,63.6131291 141.280213,64.2721452 141.193122,64.807134 C140.508834,65.4789805 140.160469,65.7153709 139.588155,65.7153709 C139.01623,65.7153709 138.642982,65.3047981 138.642982,64.7573676 Z M139.103322,61.5104985 C139.675247,61.0999257 140.645691,60.6644696 141.155797,60.6644696 C141.578812,60.6644696 141.889852,60.8137688 141.889852,61.2989913 C141.889852,61.5478233 141.80276,62.057929 141.715669,62.4062938 C140.272443,62.555593 137.647654,62.9412826 137.647654,64.8320172 C137.647654,65.8149037 138.281787,66.461867 139.289557,66.461867 C140.073767,66.461867 140.658133,66.0637357 141.155797,65.5038637 C141.155797,66.0139693 141.230447,66.461867 141.827644,66.461867 C142.138684,66.461867 142.524373,66.3250093 143.134012,65.9019949 L142.88518,65.4665389 C142.611464,65.6407213 142.437282,65.7153709 142.300424,65.7153709 C142.176008,65.7153709 142.051592,65.6158381 142.051592,65.4416557 C142.051592,65.118174 142.462165,63.3020891 142.648789,62.5307098 C142.835413,61.7717721 142.88518,61.4109657 142.88518,61.1621337 C142.88518,60.216572 142.250658,59.9179736 141.429512,59.9179736 C140.5586,59.9179736 139.799663,60.216572 138.692749,60.8884184 L139.103322,61.5104985 L139.103322,61.5104985 Z" id="Fill-24" fill="#1A1919"></path>
                    <path d="M143.943882,66.2876845 L144.93921,66.2876845 L145.847058,62.0703706 C146.86727,61.1123673 147.576441,60.6644696 148.098988,60.6644696 C148.546886,60.6644696 148.857926,60.838652 148.857926,61.2989913 C148.857926,61.5851481 148.808159,61.8713049 148.683743,62.431177 L147.862598,66.2876845 L148.857926,66.2876845 L149.703955,62.244553 C149.803487,61.7468889 149.853254,61.3985241 149.853254,61.0501593 C149.853254,60.2663384 149.193849,59.9179736 148.497119,59.9179736 C147.563999,59.9179736 146.568671,60.6147032 145.959033,61.3114329 L145.93415,61.2865497 L146.24519,60.092156 L145.249861,60.092156 L143.943882,66.2876845" id="Fill-25" fill="#1A1919"></path>
                    <path d="M155.338834,66.461867 L156.147149,65.9268781 L153.696542,62.991049 L157.030503,60.5524952 L156.470631,59.9179736 L152.551915,62.9412826 L155.338834,66.461867 Z M150.835363,66.2876845 L151.830302,66.2876845 L153.783633,57.0567941 L152.788305,57.0567941 L150.835363,66.2876845 L150.835363,66.2876845 Z" id="Fill-26" fill="#1A1919"></path>
                    <path d="M158.462453,62.5058266 C158.798376,61.6473561 159.470223,60.58982 160.453109,60.58982 C161.386229,60.58982 161.609789,61.2865497 161.609789,62.0330458 C161.609789,62.1947866 161.597737,62.3565274 161.584906,62.5058266 L158.462453,62.5058266 Z M162.443377,63.1776731 C162.46826,62.8790746 162.505585,62.5804762 162.505585,62.2818778 C162.505585,61.0377177 161.995868,59.9179736 160.577525,59.9179736 C158.611752,59.9179736 157.243176,62.0330458 157.243176,63.8121947 C157.243176,65.3670061 158.05188,66.461867 159.656847,66.461867 C160.5402,66.461867 161.361346,66.0139693 161.983037,65.5536301 L161.634673,64.9564332 C161.137397,65.3794477 160.465551,65.7153709 159.768821,65.7153709 C158.636636,65.7153709 158.238504,64.7946924 158.238504,63.8868443 C158.238504,63.6504539 158.263387,63.4389467 158.313154,63.1776731 L162.443377,63.1776731 L162.443377,63.1776731 Z" id="Fill-27" fill="#1A1919"></path>
                    <path d="M163.228364,66.2876845 L164.223692,66.2876845 L165.131929,62.0703706 C166.15214,61.1123673 166.861311,60.6644696 167.383859,60.6644696 C167.831368,60.6644696 168.142796,60.838652 168.142796,61.2989913 C168.142796,61.5851481 168.092641,61.8713049 167.968614,62.431177 L167.147468,66.2876845 L168.142796,66.2876845 L168.988436,62.244553 C169.087969,61.7468889 169.137736,61.3985241 169.137736,61.0501593 C169.137736,60.2663384 168.478331,59.9179736 167.78199,59.9179736 C166.84887,59.9179736 165.853542,60.6147032 165.243903,61.3114329 L165.21902,61.2865497 L165.53006,60.092156 L164.534732,60.092156 L163.228364,66.2876845" id="Fill-28" fill="#1A1919"></path>
                    <path d="M170.119845,66.2876845 L171.115173,66.2876845 L172.023021,62.0703706 C173.043232,61.1123673 173.752403,60.6644696 174.274951,60.6644696 C174.722848,60.6644696 175.033888,60.838652 175.033888,61.2989913 C175.033888,61.5851481 174.984122,61.8713049 174.859706,62.431177 L174.03856,66.2876845 L175.033888,66.2876845 L175.879917,62.244553 C175.97945,61.7468889 176.029216,61.3985241 176.029216,61.0501593 C176.029216,60.2663384 175.369811,59.9179736 174.673082,59.9179736 C173.739962,59.9179736 172.744634,60.6147032 172.135384,61.3114329 L172.110501,61.2865497 L173.068115,57.0567941 L172.072787,57.0567941 L170.119845,66.2876845" id="Fill-29" fill="#1A1919"></path>
                    <path d="M177.906732,64.7573676 C177.906732,63.8495195 178.976709,63.2523227 180.84295,63.0159322 C180.69365,63.6131291 180.544351,64.2721452 180.45726,64.807134 C179.772972,65.4789805 179.424607,65.7153709 178.852293,65.7153709 C178.27998,65.7153709 177.906732,65.3047981 177.906732,64.7573676 Z M178.367071,61.5104985 C178.939385,61.0999257 179.909829,60.6644696 180.419935,60.6644696 C180.84295,60.6644696 181.15399,60.8137688 181.15399,61.2989913 C181.15399,61.5478233 181.066898,62.057929 180.979807,62.4062938 C179.536581,62.555593 176.911792,62.9412826 176.911792,64.8320172 C176.911792,65.8149037 177.545925,66.461867 178.553695,66.461867 C179.337516,66.461867 179.922271,66.0637357 180.419935,65.5038637 C180.419935,66.0139693 180.494585,66.461867 181.091782,66.461867 C181.402822,66.461867 181.788511,66.3250093 182.39815,65.9019949 L182.148929,65.4665389 C181.875602,65.6407213 181.70142,65.7153709 181.564562,65.7153709 C181.440146,65.7153709 181.31573,65.6158381 181.31573,65.4416557 C181.31573,65.118174 181.726303,63.3020891 181.912538,62.5307098 C182.099162,61.7717721 182.148929,61.4109657 182.148929,61.1621337 C182.148929,60.216572 181.514796,59.9179736 180.69365,59.9179736 C179.822738,59.9179736 179.063801,60.216572 177.956498,60.8884184 L178.367071,61.5104985 L178.367071,61.5104985 Z" id="Fill-30" fill="#1A1919"></path>
                    <path d="M183.643087,64.1352875 C183.543555,64.6329516 183.494177,64.9813164 183.494177,65.3296813 C183.494177,66.1135021 184.153193,66.461867 184.849923,66.461867 C185.783043,66.461867 186.778371,65.7651373 187.388009,65.0684076 L187.412893,65.0932908 L187.101853,66.2876845 L188.097181,66.2876845 L189.40316,60.092156 L188.408221,60.092156 L187.499984,64.30947 C186.479772,65.2674733 185.770601,65.7153709 185.248054,65.7153709 C184.800156,65.7153709 184.489116,65.5411885 184.489116,65.0808492 C184.489116,64.7946924 184.538883,64.5085356 184.663299,63.9490523 L185.484444,60.092156 L184.489116,60.092156 L183.643087,64.1352875" id="Fill-31" fill="#1A1919"></path>
                    <path d="M189.800514,66.1383853 C190.273294,66.3747758 190.820725,66.461867 191.467688,66.461867 C192.749173,66.461867 193.8938,65.8273453 193.8938,64.5831852 C193.8938,62.8417498 191.604546,62.9537242 191.604546,61.7966553 C191.604546,61.1496921 192.052443,60.6644696 193.159357,60.6644696 C193.495669,60.6644696 193.931125,60.7391192 194.353751,60.8635352 L194.615024,60.1668056 C194.142244,60.0050648 193.669852,59.9179736 193.134863,59.9179736 C191.529896,59.9179736 190.609218,60.7266776 190.609218,61.8464217 C190.609218,63.6131291 192.898472,63.4389467 192.898472,64.6453932 C192.898472,65.5163053 192.077327,65.7900205 191.380597,65.7900205 C190.920258,65.7900205 190.497243,65.7029293 190.08667,65.5038637 L189.800514,66.1383853" id="Fill-32" fill="#1A1919"></path>
                    <polyline id="Fill-33" fill="#1A1919" points="42.0883815 48.3441741 43.8519785 48.3441741 47.967038 35.6288577 48.0105837 35.6288577 51.9079152 48.3441741 53.6711234 48.3441741 58.765959 33.4951231 57.0245237 32.9725759 52.8223729 45.9927115 52.7788273 45.9927115 49.0770622 33.2773951 47.1178988 33.2773951 43.0681576 45.9927115 43.024612 45.9927115 39.3450084 32.9725759 37.4290019 33.4951231 42.0883815 48.3441741"></polyline>
                    <polyline id="Fill-34" fill="#1A1919" points="62.1003082 48.3441741 63.9727691 48.3441741 64.1034059 33.2773951 62.230945 33.2773951 62.1003082 48.3441741"></polyline>
                    <polyline id="Fill-35" fill="#1A1919" points="77.3381592 48.3441741 77.3381592 46.7765323 70.9151826 46.7765323 71.0458194 33.2773951 69.1733584 33.2773951 69.0427216 48.3441741 77.3381592 48.3441741"></polyline>
                    <polyline id="Fill-36" fill="#1A1919" points="80.1484058 48.3441741 82.0426396 48.3441741 82.1297308 41.5292871 90.250986 41.5292871 90.1856676 48.3441741 92.0799013 48.3441741 92.2105381 33.2773951 90.3163044 33.2773951 90.2292132 39.9616453 82.107958 39.9616453 82.1732764 33.2773951 80.2790426 33.2773951 80.1484058 48.3441741"></polyline>
                    <polyline id="Fill-37" fill="#1A1919" points="96.9554538 48.3441741 104.924299 48.3441741 104.924299 46.7765323 98.8714604 46.7765323 98.915006 41.5292871 104.641253 41.5292871 104.641253 39.9616453 98.8932332 39.9616453 98.9367788 34.8450368 104.837208 34.8450368 104.837208 33.2773951 97.0860906 33.2773951 96.9554538 48.3441741"></polyline>
                    <polyline id="Fill-38" fill="#1A1919" points="117.444827 48.3441741 117.444827 46.7765323 111.02185 46.7765323 111.152487 33.2773951 109.280026 33.2773951 109.149389 48.3441741 117.444827 48.3441741"></polyline>
                    <polyline id="Fill-39" fill="#1A1919" points="119.210368 48.3441741 121.01751 48.6489933 123.085927 35.7594945 123.129472 35.7594945 127.505805 48.3441741 129.291175 48.3441741 133.971939 35.7594945 134.015873 35.7594945 135.931491 48.6489933 137.760406 48.3441741 135.365787 33.2773951 133.340916 33.2773951 128.442036 45.9927115 123.89152 33.2773951 121.953741 33.2773951 119.210368 48.3441741"></polyline>
                    <path d="M140.786048,47.4514892 C142.048871,48.2353101 143.28992,48.6489933 144.922881,48.6489933 C148.232347,48.6489933 149.799988,46.5588043 149.799988,44.3162057 C149.799988,39.5915077 143.028647,40.3535557 143.028647,37.0440898 C143.028647,35.2369473 144.509197,34.4095808 145.815566,34.4095808 C147.230798,34.4095808 148.123483,34.932128 149.016167,35.5199937 L149.73467,34.1483072 C148.537166,33.4298047 147.209025,32.9725759 145.728474,32.9725759 C143.05042,32.9725759 141.156186,34.605536 141.156186,36.9352258 C141.156186,42.2042439 147.796891,40.6366022 147.796891,44.4686153 C147.796891,46.1451211 146.577614,47.2119884 144.814017,47.2119884 C143.638285,47.2119884 142.419008,46.6676683 141.613415,46.1015755 L140.786048,47.4514892" id="Fill-40" fill="#1A1919"></path>
                    <polyline id="Fill-41" fill="#1A1919" points="152.174779 34.8450368 156.943023 34.8450368 156.812386 48.3441741 158.684847 48.3441741 158.815484 34.8450368 163.583727 34.8450368 163.583727 33.2773951 152.174779 33.2773951 152.174779 34.8450368"></polyline>
                    <polyline id="Fill-42" fill="#1A1919" points="166.825542 48.3441741 168.698003 48.3441741 168.82864 33.2773951 166.956179 33.2773951 166.825542 48.3441741"></polyline>
                    <polyline id="Fill-43" fill="#1A1919" points="174.203411 48.3441741 176.097645 48.3441741 176.184736 41.5292871 182.19403 41.5292871 182.19403 39.9616453 176.162964 39.9616453 176.206509 34.8450368 182.389985 34.8450368 182.389985 33.2773951 174.334048 33.2773951 174.203411 48.3441741"></polyline>
                    <polyline id="Fill-44" fill="#1A1919" points="184.699457 34.8450368 189.467701 34.8450368 189.337064 48.3441741 191.209525 48.3441741 191.340162 34.8450368 196.108405 34.8450368 196.108405 33.2773951 184.699457 33.2773951 184.699457 34.8450368"></polyline>
                </g>
            </g>
        </g>
    </g>
</svg>